<svg width="15" height="15" viewBox="0 0 15 15" fill="none" xmlns="http://www.w3.org/2000/svg">
<path d="M7.89838 11.8336L14.8348 4.90362C15.0551 4.68174 15.0551 4.32298 14.8348 4.1011L13.9068 3.16641C13.6865 2.94453 13.3304 2.94453 13.1101 3.16641L7.5 8.76043L1.88994 3.16641C1.66965 2.94453 1.31347 2.94453 1.09319 3.16641L0.165215 4.1011C-0.0550718 4.32298 -0.0550718 4.68174 0.165215 4.90362L7.10162 11.8336C7.32191 12.0555 7.67809 12.0555 7.89838 11.8336Z" fill="#5C6573"/>
<mask id="mask0" mask-type="alpha" maskUnits="userSpaceOnUse" x="0" y="3" width="15" height="9">
<path d="M7.89838 11.8336L14.8348 4.90362C15.0551 4.68174 15.0551 4.32298 14.8348 4.1011L13.9068 3.16641C13.6865 2.94453 13.3304 2.94453 13.1101 3.16641L7.5 8.76043L1.88994 3.16641C1.66965 2.94453 1.31347 2.94453 1.09319 3.16641L0.165215 4.1011C-0.0550718 4.32298 -0.0550718 4.68174 0.165215 4.90362L7.10162 11.8336C7.32191 12.0555 7.67809 12.0555 7.89838 11.8336Z" fill="white"/>
</mask>
<g mask="url(#mask0)">
<rect width="15" height="15" fill="white"/>
<rect width="15" height="15" fill="white"/>
</g>
</svg>
