<svg width="311" height="233" viewBox="0 0 311 233" fill="none" xmlns="http://www.w3.org/2000/svg">
<path d="M311 0H0V233H311V0Z" fill="url(#paint0_radial)"/>
<path d="M311 0H0V233H311V0Z" fill="url(#paint1_radial)"/>
<path d="M311 156.498H0V233H311V156.498Z" fill="white"/>
<path d="M183.127 126.06V124.687C183.642 124.453 184.223 124.403 184.771 124.546C186.129 124.898 187.537 125.016 188.935 124.895C195.184 124.366 200.167 119.136 200.588 112.683C200.783 110.091 200.209 107.499 198.938 105.231C197.668 102.963 195.757 101.119 193.444 99.9283C192.802 99.5987 192.28 99.0735 191.956 98.4286C191.631 97.7837 191.52 97.0525 191.639 96.3405C191.72 95.8276 191.761 95.3091 191.76 94.7899C191.76 89.3489 187.32 84.9821 181.975 85.3405C180.578 85.4472 179.225 85.874 178.019 86.5879C176.814 87.3018 175.789 88.2835 175.025 89.4569V126.061L183.127 126.06Z" fill="#E8E8E8"/>
<path d="M175.025 56.0439V91.2886H219.476V56.0439H175.025Z" fill="#F5F5F5"/>
<path d="M220.963 124.581C221.76 123.746 222.222 122.08 222.222 118.95C222.222 109.656 213.336 78.1078 213.336 78.1078C213.336 78.1078 204.449 109.656 204.449 118.95C204.449 122.083 204.891 123.747 205.667 124.581H220.963Z" fill="#E8E8E8"/>
<path d="M192.654 56.0439L219.475 82.8354V80.8708L194.621 56.0439H192.654Z" fill="#FAFAFA"/>
<path d="M175.848 56.0439L211.13 91.2886H213.097L177.814 56.0439H175.848Z" fill="#FAFAFA"/>
<path d="M180.672 56.0439L215.954 91.2886H219.475V88.3276L187.156 56.0439H180.672Z" fill="#FAFAFA"/>
<path d="M219.476 89.6238H175.025V92.9542H219.476V89.6238Z" fill="#EFEFEF"/>
<path d="M219.476 87.9587H175.025V91.289H219.476V87.9587Z" fill="white"/>
<path d="M219.476 71.3073H175.025V74.0824H219.476V71.3073Z" fill="white"/>
<path d="M191.694 56.0439H188.916V89.6235H191.694V56.0439Z" fill="white"/>
<path d="M205.585 56.0439H202.807V89.6235H205.585V56.0439Z" fill="white"/>
<path d="M170.857 51.8813H223.642V127.366H170.857V51.8813ZM218.087 57.4314H176.413V121.817H218.087V57.4314Z" fill="white"/>
<path d="M176.413 57.4314H218.087V121.817H176.413V57.4314ZM175.023 56.0439V123.203H219.475V56.0439H175.023Z" fill="#F5F5F5"/>
<path d="M166.413 43.8331L228.088 43.8331V42.4456L166.413 42.4456V43.8331Z" fill="#E3E3E3"/>
<path d="M228.09 44.5267C228.857 44.5267 229.479 43.9055 229.479 43.1392C229.479 42.3729 228.857 41.7516 228.09 41.7516C227.323 41.7516 226.701 42.3729 226.701 43.1392C226.701 43.9055 227.323 44.5267 228.09 44.5267Z" fill="#E3E3E3"/>
<path d="M166.414 44.5267C167.182 44.5267 167.803 43.9055 167.803 43.1392C167.803 42.3729 167.182 41.7516 166.414 41.7516C165.647 41.7516 165.025 42.3729 165.025 43.1392C165.025 43.9055 165.647 44.5267 166.414 44.5267Z" fill="#E3E3E3"/>
<path opacity="0.7" d="M224.755 40.7805C224.755 40.7028 224.631 40.6418 224.477 40.6418C224.323 40.6418 224.199 40.7039 224.199 40.7805C224.199 40.857 224.075 40.9191 223.922 40.9191C223.768 40.9191 223.644 40.857 223.644 40.7805C223.644 40.7039 223.519 40.6418 223.366 40.6418C223.213 40.6418 223.088 40.7039 223.088 40.7805C223.088 40.857 222.964 40.9191 222.81 40.9191C222.657 40.9191 222.533 40.857 222.533 40.7805C222.533 40.7039 222.408 40.6418 222.255 40.6418C222.101 40.6418 221.977 40.7039 221.977 40.7805C221.977 40.857 221.853 40.9191 221.699 40.9191C221.545 40.9191 221.421 40.857 221.421 40.7805C221.421 40.7039 221.297 40.6418 221.144 40.6418C220.99 40.6418 220.866 40.7039 220.866 40.7805C220.866 40.857 220.741 40.9191 220.588 40.9191C220.434 40.9191 220.31 40.857 220.31 40.7805C220.31 40.7039 220.186 40.6418 220.032 40.6418C219.879 40.6418 219.754 40.7039 219.754 40.7805C219.754 40.857 219.63 40.9191 219.477 40.9191C219.323 40.9191 219.199 40.857 219.199 40.7805C219.199 40.7039 219.074 40.6418 218.921 40.6418C218.767 40.6418 218.643 40.7039 218.643 40.7805C218.643 40.857 218.519 40.9191 218.365 40.9191C218.212 40.9191 218.088 40.857 218.088 40.7805C218.088 40.7039 217.963 40.6418 217.81 40.6418C217.656 40.6418 217.532 40.7039 217.532 40.7805C217.532 40.857 217.407 40.9191 217.254 40.9191C217.101 40.9191 216.976 40.857 216.976 40.7805C216.976 40.7039 216.852 40.6418 216.698 40.6418C216.545 40.6418 216.421 40.7039 216.421 40.7805C216.421 40.857 216.296 40.9191 216.143 40.9191C215.989 40.9191 215.865 40.857 215.865 40.7805C215.865 40.7039 215.74 40.6418 215.587 40.6418C215.434 40.6418 215.309 40.7039 215.309 40.7805C215.309 40.857 215.185 40.9191 215.031 40.9191C214.878 40.9191 214.754 40.857 214.754 40.7805C214.754 40.7039 214.629 40.6418 214.476 40.6418C214.322 40.6418 214.198 40.7039 214.198 40.7805C214.198 40.857 214.074 40.9191 213.92 40.9191C213.767 40.9191 213.642 40.857 213.642 40.7805C213.642 40.7039 213.518 40.6418 213.365 40.6418C213.211 40.6418 213.087 40.7039 213.087 40.7805C213.087 40.857 212.962 40.9191 212.809 40.9191C212.655 40.9191 212.531 40.857 212.531 40.7805C212.531 40.7039 212.407 40.6418 212.253 40.6418C212.1 40.6418 211.975 40.7039 211.975 40.7805C211.975 40.857 211.851 40.9191 211.698 40.9191C211.544 40.9191 211.42 40.857 211.42 40.7805C211.42 40.7039 211.295 40.6418 211.142 40.6418C210.989 40.6418 210.864 40.7039 210.864 40.7805C210.864 40.857 210.74 40.9191 210.586 40.9191C210.433 40.9191 210.309 40.857 210.309 40.7805C210.309 40.7039 210.184 40.6418 210.031 40.6418C209.877 40.6418 209.753 40.7039 209.753 40.7805C209.753 40.857 209.628 40.9191 209.475 40.9191C209.322 40.9191 209.197 40.857 209.197 40.7805C209.197 40.7039 209.073 40.6418 208.919 40.6418C208.766 40.6418 208.642 40.7039 208.642 40.7805C208.642 40.857 208.517 40.9191 208.364 40.9191C208.21 40.9191 208.086 40.857 208.086 40.7805C208.086 40.7039 207.962 40.6418 207.808 40.6418C207.655 40.6418 207.53 40.7039 207.53 40.7805V43.8331C207.53 45.6369 205.169 115.294 215.726 125.285C220.449 125.285 221.557 123.525 222.671 121.955C223.859 120.278 224.894 117.098 227.672 117.098C229.339 117.098 230.867 118.902 232.395 118.902C236.423 118.902 236.145 112.658 237.812 112.658C239.063 112.658 239.479 114.599 241.563 114.599C243.993 114.599 245.869 112.518 246.425 110.992C246.981 109.466 247.814 108.633 249.203 107.8C229.338 78.3835 224.755 49.6601 224.755 43.8324V40.7805Z" fill="white"/>
<path opacity="0.3" d="M218.781 66.0345C218.781 66.0345 221.969 105.489 229.872 117.877C230.727 118.364 231.561 118.901 232.394 118.901C232.867 118.91 233.335 118.81 233.763 118.61C234.192 118.411 234.569 118.116 234.865 117.748C233.078 114.979 223.906 99.4937 218.781 66.0345Z" fill="#E8E8E8"/>
<path opacity="0.3" d="M227.256 77.1393C227.327 77.4628 231.386 95.6582 239.949 114.102C240.421 114.434 240.985 114.609 241.562 114.6C242.244 114.578 242.915 114.418 243.534 114.131C244.153 113.843 244.708 113.434 245.165 112.928C243.376 111.041 236.149 102.345 227.256 77.1393Z" fill="#E8E8E8"/>
<path opacity="0.3" d="M220.089 124.469C221.4 123.813 222.035 122.852 222.671 121.955C222.836 121.722 222.998 121.461 223.161 121.182C221.931 118.144 215.496 101.354 213.365 77.5518C213.364 77.5502 212.536 106.894 220.089 124.469Z" fill="#E8E8E8"/>
<path d="M223.922 40.9191C224.076 40.9191 224.2 40.857 224.2 40.7805L223.922 43.2782L223.645 40.7805C223.645 40.857 223.769 40.9191 223.922 40.9191Z" fill="#E6E6E6"/>
<path d="M222.811 40.9191C222.966 40.9191 223.089 40.857 223.089 40.7805L222.811 43.2782L222.533 40.7805C222.533 40.857 222.658 40.9191 222.811 40.9191Z" fill="#E6E6E6"/>
<path d="M221.7 40.9191C221.853 40.9191 221.977 40.857 221.977 40.7805L221.7 43.2782L221.422 40.7805C221.422 40.857 221.546 40.9191 221.7 40.9191Z" fill="#E6E6E6"/>
<path d="M220.588 40.9191C220.742 40.9191 220.866 40.857 220.866 40.7805L220.588 43.2782L220.311 40.7805C220.311 40.857 220.435 40.9191 220.588 40.9191Z" fill="#E6E6E6"/>
<path d="M219.477 40.9191C219.63 40.9191 219.755 40.857 219.755 40.7805L219.477 43.2782L219.199 40.7805C219.199 40.857 219.324 40.9191 219.477 40.9191Z" fill="#E6E6E6"/>
<path d="M218.365 40.9191C218.518 40.9191 218.643 40.857 218.643 40.7805L218.365 43.2782L218.088 40.7805C218.088 40.857 218.211 40.9191 218.365 40.9191Z" fill="#E6E6E6"/>
<path d="M217.255 40.9191C217.408 40.9191 217.532 40.857 217.532 40.7805L217.255 43.2782L216.977 40.7805C216.977 40.857 217.101 40.9191 217.255 40.9191Z" fill="#E6E6E6"/>
<path d="M216.145 40.9191C216.299 40.9191 216.423 40.857 216.423 40.7805L216.145 43.2782L215.867 40.7805C215.865 40.857 215.99 40.9191 216.145 40.9191Z" fill="#E6E6E6"/>
<path d="M215.031 40.9191C215.185 40.9191 215.309 40.857 215.309 40.7805L215.031 43.2782L214.754 40.7805C214.754 40.857 214.878 40.9191 215.031 40.9191Z" fill="#E6E6E6"/>
<path d="M213.921 40.9191C214.074 40.9191 214.198 40.857 214.198 40.7805L213.921 43.2782L213.643 40.7805C213.643 40.857 213.767 40.9191 213.921 40.9191Z" fill="#E6E6E6"/>
<path d="M212.809 40.9191C212.962 40.9191 213.087 40.857 213.087 40.7805L212.809 43.2782L212.531 40.7805C212.531 40.857 212.656 40.9191 212.809 40.9191Z" fill="#E6E6E6"/>
<path d="M211.698 40.9191C211.851 40.9191 211.975 40.857 211.975 40.7805L211.698 43.2782L211.42 40.7805C211.42 40.857 211.544 40.9191 211.698 40.9191Z" fill="#E6E6E6"/>
<path d="M210.584 40.9191C210.738 40.9191 210.862 40.857 210.862 40.7805L210.584 43.2782L210.307 40.7805C210.307 40.857 210.432 40.9191 210.584 40.9191Z" fill="#E6E6E6"/>
<path d="M209.475 40.9191C209.628 40.9191 209.753 40.857 209.753 40.7805L209.475 43.2782L209.197 40.7805C209.197 40.857 209.322 40.9191 209.475 40.9191Z" fill="#E6E6E6"/>
<path d="M208.364 40.9191C208.517 40.9191 208.642 40.857 208.642 40.7805L208.364 43.2782L208.086 40.7805C208.086 40.857 208.21 40.9191 208.364 40.9191Z" fill="#E6E6E6"/>
<path d="M208.364 40.9191C208.517 40.9191 208.642 40.857 208.642 40.7805L208.364 43.2782L208.086 40.7805C208.086 40.857 208.21 40.9191 208.364 40.9191Z" fill="#E6E6E6"/>
<path opacity="0.7" d="M169.33 43.9718V40.9191C169.33 40.8414 169.455 40.7805 169.608 40.7805C169.762 40.7805 169.886 40.8426 169.886 40.9191C169.886 40.9956 170.011 41.0581 170.164 41.0581C170.317 41.0581 170.442 40.996 170.442 40.9191C170.442 40.8422 170.566 40.7805 170.719 40.7805C170.873 40.7805 170.997 40.8426 170.997 40.9191C170.997 40.9956 171.122 41.0581 171.275 41.0581C171.429 41.0581 171.553 40.996 171.553 40.9191C171.553 40.8422 171.677 40.7805 171.831 40.7805C171.984 40.7805 172.109 40.8426 172.109 40.9191C172.109 40.9956 172.233 41.0581 172.386 41.0581C172.539 41.0581 172.664 40.996 172.664 40.9191C172.664 40.8422 172.789 40.7805 172.942 40.7805C173.096 40.7805 173.22 40.8426 173.22 40.9191C173.22 40.9956 173.344 41.0581 173.498 41.0581C173.651 41.0581 173.776 40.996 173.776 40.9191C173.776 40.8422 173.9 40.7805 174.053 40.7805C174.207 40.7805 174.331 40.8426 174.331 40.9191C174.331 40.9956 174.456 41.0581 174.609 41.0581C174.762 41.0581 174.887 40.996 174.887 40.9191C174.887 40.8422 175.011 40.7805 175.165 40.7805C175.318 40.7805 175.442 40.8426 175.442 40.9191C175.442 40.9956 175.567 41.0581 175.72 41.0581C175.874 41.0581 175.998 40.996 175.998 40.9191C175.998 40.8422 176.123 40.7805 176.276 40.7805C176.429 40.7805 176.554 40.8426 176.554 40.9191C176.554 40.9956 176.678 41.0581 176.832 41.0581C176.985 41.0581 177.109 40.996 177.109 40.9191C177.109 40.8422 177.234 40.7805 177.387 40.7805C177.541 40.7805 177.665 40.8426 177.665 40.9191C177.665 40.9956 177.789 41.0581 177.943 41.0581C178.096 41.0581 178.221 40.996 178.221 40.9191C178.221 40.8422 178.345 40.7805 178.498 40.7805C178.651 40.7805 178.776 40.8426 178.776 40.9191C178.776 40.9956 178.901 41.0581 179.054 41.0581C179.208 41.0581 179.332 40.996 179.332 40.9191C179.332 40.8422 179.456 40.7805 179.61 40.7805C179.763 40.7805 179.888 40.8426 179.888 40.9191C179.888 40.9956 180.012 41.0581 180.165 41.0581C180.318 41.0581 180.443 40.996 180.443 40.9191C180.443 40.8422 180.568 40.7805 180.721 40.7805C180.874 40.7805 180.999 40.8426 180.999 40.9191C180.999 40.9956 181.123 41.0581 181.277 41.0581C181.43 41.0581 181.554 40.996 181.554 40.9191C181.554 40.8422 181.679 40.7805 181.832 40.7805C181.986 40.7805 182.11 40.8426 182.11 40.9191C182.11 40.9956 182.235 41.0581 182.388 41.0581C182.541 41.0581 182.666 40.996 182.666 40.9191C182.666 40.8422 182.79 40.7805 182.944 40.7805C183.097 40.7805 183.221 40.8426 183.221 40.9191C183.221 40.9956 183.346 41.0581 183.499 41.0581C183.653 41.0581 183.777 40.996 183.777 40.9191C183.777 40.8422 183.901 40.7805 184.055 40.7805C184.208 40.7805 184.333 40.8426 184.333 40.9191C184.333 40.9956 184.457 41.0581 184.61 41.0581C184.763 41.0581 184.888 40.996 184.888 40.9191C184.888 40.8422 185.013 40.7805 185.166 40.7805C185.32 40.7805 185.444 40.8426 185.444 40.9191C185.444 40.9956 185.568 41.0581 185.722 41.0581C185.875 41.0581 186 40.996 186 40.9191C186 40.8422 186.124 40.7805 186.277 40.7805C186.43 40.7805 186.555 40.8426 186.555 40.9191V43.9718C186.555 45.776 189.075 93.7918 163.496 112.043C158.773 112.043 157.663 110.283 156.551 108.713C155.363 107.036 154.189 103.717 151.411 103.717C149.744 103.717 148.355 105.659 146.827 105.659C142.799 105.659 143.216 99.4145 141.549 99.4145C140.298 99.4145 139.605 101.356 137.52 101.356C135.09 101.356 133.353 99.2747 132.798 97.7482C132.242 96.2217 131.409 95.3895 130.02 94.5569C138.771 87.3412 169.33 49.6585 169.33 43.8308" fill="white"/>
<path opacity="0.3" d="M144.381 104.506C144.672 104.874 145.044 105.171 145.469 105.371C145.894 105.572 146.36 105.67 146.83 105.66C146.869 105.66 146.908 105.66 146.947 105.656C146.985 105.652 147.024 105.65 147.063 105.645C147.182 105.63 147.299 105.606 147.413 105.571C147.442 105.563 147.471 105.554 147.501 105.545C147.583 105.517 147.665 105.487 147.745 105.452C147.769 105.442 147.792 105.433 147.816 105.421C147.84 105.41 147.862 105.4 147.885 105.389C147.978 105.346 148.07 105.299 148.163 105.248C148.187 105.235 148.209 105.223 148.233 105.209C148.349 105.144 148.466 105.075 148.58 105.002L148.678 104.94C149.062 104.697 149.447 104.432 149.841 104.211C149.866 104.196 149.891 104.182 149.919 104.168C150.04 104.103 150.161 104.042 150.282 103.988C150.307 103.977 150.33 103.966 150.355 103.956C150.425 103.927 150.494 103.899 150.564 103.874C150.569 103.869 150.575 103.862 150.58 103.856C161.607 90.6394 169.35 75.4854 169.47 75.1969C160.151 91.4304 150.14 99.3423 144.381 104.506Z" fill="#E8E8E8"/>
<path opacity="0.4" d="M133.561 99.145C134.411 100.304 135.79 101.359 137.52 101.359C139.056 101.359 139.837 100.302 140.642 99.7473C157.936 81.7962 164.828 66.1538 165.017 65.7654C150.994 89.6239 135.219 98.0713 133.561 99.145Z" fill="#E8E8E8"/>
<path opacity="0.3" d="M155.955 107.769C156.158 108.113 156.355 108.435 156.551 108.713C157.219 109.655 157.886 110.665 159.332 111.323C176.736 92.3461 179.815 70.4612 180.385 67.6527C174.501 90.8529 161.274 104.55 155.955 107.769Z" fill="#E8E8E8"/>
<path d="M170.164 41.0581C170.011 41.0581 169.887 40.996 169.887 40.9191L170.164 43.4169L170.442 40.9191C170.442 40.996 170.318 41.0581 170.164 41.0581Z" fill="#E6E6E6"/>
<path d="M171.276 41.0581C171.121 41.0581 170.998 40.996 170.998 40.9191L171.276 43.4169L171.554 40.9191C171.556 40.996 171.429 41.0581 171.276 41.0581Z" fill="#E6E6E6"/>
<path d="M172.387 41.0581C172.234 41.0581 172.109 40.996 172.109 40.9191L172.387 43.4169L172.665 40.9191C172.665 40.996 172.541 41.0581 172.387 41.0581Z" fill="#E6E6E6"/>
<path d="M173.499 41.0581C173.345 41.0581 173.221 40.996 173.221 40.9191L173.499 43.4169L173.777 40.9191C173.776 40.996 173.651 41.0581 173.499 41.0581Z" fill="#E6E6E6"/>
<path d="M174.61 41.0581C174.456 41.0581 174.332 40.996 174.332 40.9191L174.61 43.4169L174.888 40.9191C174.888 40.996 174.763 41.0581 174.61 41.0581Z" fill="#E6E6E6"/>
<path d="M175.721 41.0581C175.568 41.0581 175.443 40.996 175.443 40.9191L175.721 43.4169L175.999 40.9191C175.999 40.996 175.875 41.0581 175.721 41.0581Z" fill="#E6E6E6"/>
<path d="M176.833 41.0581C176.677 41.0581 176.555 40.996 176.555 40.9191L176.833 43.4169L177.11 40.9191C177.11 40.996 176.986 41.0581 176.833 41.0581Z" fill="#E6E6E6"/>
<path d="M177.942 41.0581C177.787 41.0581 177.664 40.996 177.664 40.9191L177.942 43.4169L178.22 40.9191C178.22 40.996 178.096 41.0581 177.942 41.0581Z" fill="#E6E6E6"/>
<path d="M179.055 41.0581C178.902 41.0581 178.777 40.996 178.777 40.9191L179.055 43.4169L179.333 40.9191C179.333 40.996 179.208 41.0581 179.055 41.0581Z" fill="#E6E6E6"/>
<path d="M180.166 41.0581C180.013 41.0581 179.889 40.996 179.889 40.9191L180.166 43.4169L180.444 40.9191C180.444 40.996 180.32 41.0581 180.166 41.0581Z" fill="#E6E6E6"/>
<path d="M181.276 41.0581C181.122 41.0581 180.998 40.996 180.998 40.9191L181.276 43.4169L181.554 40.9191C181.554 40.996 181.428 41.0581 181.276 41.0581Z" fill="#E6E6E6"/>
<path d="M182.389 41.0581C182.236 41.0581 182.111 40.996 182.111 40.9191L182.389 43.4169L182.667 40.9191C182.667 40.996 182.542 41.0581 182.389 41.0581Z" fill="#E6E6E6"/>
<path d="M183.499 41.0581C183.345 41.0581 183.221 40.996 183.221 40.9191L183.499 43.4169L183.777 40.9191C183.777 40.996 183.652 41.0581 183.499 41.0581Z" fill="#E6E6E6"/>
<path d="M184.612 41.0581C184.458 41.0581 184.334 40.996 184.334 40.9191L184.612 43.4169L184.89 40.9191C184.89 40.996 184.765 41.0581 184.612 41.0581Z" fill="#E6E6E6"/>
<path d="M185.721 41.0581C185.566 41.0581 185.443 40.996 185.443 40.9191L185.721 43.4169L185.999 40.9191C185.999 40.996 185.875 41.0581 185.721 41.0581Z" fill="#E6E6E6"/>
<path d="M123.622 59.415V83.1033H72.696V59.415H123.622ZM127.121 55.92H69.1973V86.5983H127.121V55.92Z" fill="#E8E8E8"/>
<path d="M120.513 80.385H75.8066V62.5216H120.513V80.385ZM76.1954 79.9966H120.124V62.91H76.1954V79.9966Z" fill="#E8E8E8"/>
<path d="M124.01 83.4917H72.3066V59.0266H124.01V83.4917ZM72.6954 83.1033H123.622V59.415H72.6954V83.1033Z" fill="#E3E3E3"/>
<path d="M120.122 62.91H76.1953V76.89H120.122V62.91Z" fill="#EDEDED"/>
<path d="M120.124 71.3694C120.092 70.8545 119.858 70.373 119.472 70.0302C119.085 69.6874 118.579 69.511 118.064 69.5396C117.801 69.5398 117.541 69.5857 117.294 69.6751C116.753 69.1882 116.048 68.922 115.32 68.9291H115.318C114.773 68.9136 114.236 69.0606 113.775 69.3516C113.314 69.6425 112.95 70.0641 112.731 70.5625C112.268 70.2895 111.739 70.1469 111.202 70.1497C110.567 70.1455 109.947 70.3468 109.436 70.7236C109.191 70.279 108.828 69.9102 108.387 69.6574C107.946 69.4045 107.444 69.2773 106.936 69.2895H106.934C106.608 69.2894 106.284 69.3419 105.974 69.4448C105.817 69.0608 105.546 68.7338 105.198 68.5077C104.849 68.2816 104.44 68.167 104.025 68.1793C103.669 68.1732 103.318 68.2573 103.005 68.4237C102.691 68.5901 102.424 68.8334 102.23 69.1307C101.965 68.9078 101.628 68.7868 101.281 68.7893C100.981 68.7779 100.686 68.8673 100.442 69.0433C100.199 69.2193 100.021 69.4717 99.9382 69.7602C99.8084 69.5598 99.6292 69.396 99.4178 69.2845C99.2065 69.173 98.9701 69.1175 98.7311 69.1233C98.4508 69.1224 98.176 69.2009 97.9385 69.3497C97.804 69.1729 97.6298 69.0301 97.4299 68.933C97.23 68.8359 97.01 68.7871 96.7878 68.7905C96.4409 68.7879 96.1045 68.909 95.8388 69.1319C95.6448 68.8345 95.3784 68.5913 95.0645 68.4249C94.7507 68.2585 94.3996 68.1744 94.0444 68.1804C93.7435 68.1811 93.4458 68.2421 93.1689 68.3598C92.9043 67.9804 92.5502 67.6718 92.1379 67.4615C91.7256 67.2511 91.2678 67.1454 90.8049 67.1537H90.8026C90.395 67.1483 89.9909 67.2298 89.6172 67.3926C89.2436 67.5554 88.909 67.796 88.6357 68.0981C88.2093 67.8775 87.7359 67.7629 87.2556 67.7641H87.2533C86.511 67.7567 85.7941 68.0339 85.2501 68.5385C84.9772 68.2294 84.6408 67.9828 84.2637 67.8157C83.8866 67.6485 83.4778 67.5647 83.0653 67.57H83.063C82.3347 67.5627 81.6303 67.829 81.0893 68.316C80.8425 68.2266 80.5821 68.1807 80.3196 68.1804C79.964 68.1741 79.6127 68.2581 79.2986 68.4245C78.9844 68.5909 78.7177 68.8343 78.5235 69.1319C78.2582 68.909 77.922 68.788 77.5754 68.7905C77.2304 68.7697 76.8913 68.8865 76.6326 69.1153C76.3738 69.3441 76.2165 69.6661 76.1953 70.0107V76.89H120.124V71.3694Z" fill="#F5F5F5"/>
<path d="M80.4707 76.89H98.3532L89.5449 71.4533L80.4707 76.89Z" fill="#E8E8E8"/>
<path d="M107.294 76.89H95.2988L101.289 73.0067L107.294 76.89Z" fill="#E8E8E8"/>
<path d="M120.122 76.89H76.1953V79.9966H120.122V76.89Z" fill="#EDEDED"/>
<path d="M87.8574 76.89H102.63L95.3568 72.0358L87.8574 76.89Z" fill="#E6E6E6"/>
<path d="M92.6678 76.89H76.1953V74.7541L83.0591 70.6766L92.6678 76.89Z" fill="#E3E3E3"/>
<path d="M98.1584 145.819H48.3984V113.963C48.3984 113.455 48.4987 112.951 48.6934 112.482C48.8882 112.012 49.1736 111.585 49.5334 111.226C49.8933 110.867 50.3205 110.581 50.7906 110.387C51.2607 110.193 51.7646 110.092 52.2735 110.092H94.2834C94.7922 110.092 95.2961 110.193 95.7663 110.387C96.2364 110.581 96.6636 110.867 97.0234 111.226C97.3833 111.585 97.6687 112.012 97.8634 112.482C98.0582 112.951 98.1584 113.455 98.1584 113.963V145.819Z" fill="#E8E8E8"/>
<path d="M147.918 145.819H98.1582V113.963C98.1582 113.455 98.2584 112.951 98.4532 112.482C98.6479 112.012 98.9334 111.585 99.2932 111.226C99.653 110.867 100.08 110.581 100.55 110.387C101.021 110.193 101.524 110.092 102.033 110.092H144.043C144.552 110.092 145.056 110.193 145.526 110.387C145.996 110.581 146.423 110.867 146.783 111.226C147.143 111.585 147.429 112.012 147.623 112.482C147.818 112.951 147.918 113.455 147.918 113.963V145.819Z" fill="#E8E8E8"/>
<path d="M150.251 147.314H46.0664V165.624H150.251V147.314Z" fill="#DBDBDB"/>
<path d="M144.032 110.092H142.477C142.985 110.092 143.489 110.193 143.959 110.387C144.43 110.581 144.857 110.867 145.217 111.226C145.576 111.585 145.862 112.012 146.057 112.482C146.251 112.951 146.352 113.455 146.352 113.963V145.819H147.907V113.963C147.907 113.455 147.806 112.951 147.612 112.482C147.417 112.012 147.131 111.585 146.772 111.226C146.412 110.867 145.985 110.581 145.514 110.387C145.044 110.193 144.54 110.092 144.032 110.092Z" fill="#E0E0E0"/>
<path d="M102.033 110.092H103.588C103.079 110.092 102.576 110.193 102.105 110.387C101.635 110.581 101.208 110.867 100.848 111.226C100.488 111.585 100.203 112.012 100.008 112.482C99.8134 112.951 99.7132 113.455 99.7132 113.963V145.819H98.1582V113.963C98.1582 113.455 98.2584 112.951 98.4532 112.482C98.6479 112.012 98.9334 111.585 99.2932 111.226C99.653 110.867 100.08 110.581 100.55 110.387C101.021 110.193 101.524 110.092 102.033 110.092Z" fill="#E0E0E0"/>
<path d="M94.2718 110.092H92.7168C93.2257 110.092 93.7295 110.193 94.1997 110.387C94.6698 110.581 95.097 110.867 95.4569 111.226C95.8167 111.585 96.1021 112.012 96.2969 112.482C96.4916 112.951 96.5919 113.455 96.5919 113.963V145.819H98.1469V113.963C98.1469 113.455 98.0466 112.951 97.8519 112.482C97.6571 112.012 97.3717 111.585 97.0119 111.226C96.652 110.867 96.2248 110.581 95.7547 110.387C95.2845 110.193 94.7807 110.092 94.2718 110.092Z" fill="#E0E0E0"/>
<path d="M52.2735 110.092H53.8285C53.3196 110.092 52.8157 110.193 52.3456 110.387C51.8755 110.581 51.4483 110.867 51.0884 111.226C50.7286 111.585 50.4432 112.012 50.2484 112.482C50.0537 112.951 49.9534 113.455 49.9534 113.963V145.819H48.3984V113.963C48.3984 113.455 48.4987 112.951 48.6934 112.482C48.8882 112.012 49.1736 111.585 49.5334 111.226C49.8933 110.867 50.3205 110.581 50.7906 110.387C51.2607 110.193 51.7646 110.092 52.2735 110.092Z" fill="#E0E0E0"/>
<path d="M94.2709 137.276H52.2735C51.2458 137.276 50.2601 137.684 49.5334 138.41C48.8067 139.136 48.3984 140.12 48.3984 141.147V148.926H98.146V141.147C98.146 140.12 97.7377 139.136 97.011 138.41C96.2843 137.684 95.2987 137.276 94.2709 137.276Z" fill="#E0E0E0"/>
<path d="M48.3988 131.062V164.847C48.3988 165.053 48.3169 165.251 48.1711 165.397C48.0253 165.542 47.8275 165.624 47.6213 165.624H37.5138C37.3076 165.624 37.1099 165.542 36.9641 165.397C36.8182 165.251 36.7363 165.053 36.7363 164.847V131.062C36.7363 130.445 36.9821 129.852 37.4195 129.415C37.8569 128.978 38.4502 128.732 39.0688 128.732H46.0663C46.6849 128.732 47.2782 128.978 47.7157 129.415C48.1531 129.852 48.3988 130.445 48.3988 131.062Z" fill="#E8E8E8"/>
<path d="M159.58 131.062V164.847C159.58 165.053 159.499 165.251 159.353 165.397C159.207 165.542 159.009 165.624 158.803 165.624H148.695C148.489 165.624 148.292 165.542 148.146 165.397C148 165.251 147.918 165.053 147.918 164.847V131.062C147.918 130.445 148.164 129.852 148.601 129.415C149.039 128.978 149.632 128.732 150.25 128.732H157.248C157.867 128.732 158.46 128.978 158.897 129.415C159.335 129.852 159.58 130.445 159.58 131.062Z" fill="#E8E8E8"/>
<path d="M96.6034 150.479H49.9534C49.541 150.479 49.1455 150.316 48.8539 150.024C48.5623 149.733 48.3984 149.338 48.3984 148.926V142.7C48.3984 141.673 48.8067 140.689 49.5334 139.963C50.2601 139.237 51.2458 138.829 52.2735 138.829H94.2834C95.3111 138.829 96.2967 139.237 97.0235 139.963C97.7502 140.689 98.1584 141.673 98.1584 142.7V148.926C98.1584 149.338 97.9946 149.733 97.703 150.024C97.4114 150.316 97.0158 150.479 96.6034 150.479Z" fill="#F0F0F0"/>
<path d="M144.031 137.276H102.033C101.006 137.276 100.02 137.684 99.2932 138.41C98.5665 139.136 98.1582 140.12 98.1582 141.147L98.171 148.926H147.918L147.906 141.147C147.906 140.12 147.498 139.136 146.771 138.41C146.044 137.684 145.058 137.276 144.031 137.276Z" fill="#E0E0E0"/>
<path d="M146.363 150.479H99.7132C99.3008 150.479 98.9053 150.316 98.6137 150.024C98.322 149.733 98.1582 149.338 98.1582 148.926V142.7C98.1582 142.192 98.2584 141.688 98.4532 141.219C98.6479 140.749 98.9333 140.322 99.2932 139.963C99.653 139.603 100.08 139.318 100.55 139.124C101.02 138.929 101.524 138.829 102.033 138.829H144.043C145.071 138.829 146.057 139.237 146.783 139.963C147.51 140.689 147.918 141.673 147.918 142.7V148.926C147.918 149.338 147.754 149.733 147.463 150.024C147.171 150.316 146.776 150.479 146.363 150.479Z" fill="#F0F0F0"/>
<path d="M94.2718 138.829H92.7168C93.7445 138.829 94.7302 139.237 95.4569 139.963C96.1836 140.689 96.5919 141.673 96.5919 142.7V149.051C96.5616 149.439 96.386 149.802 96.1001 150.066C95.8143 150.331 95.4391 150.478 95.0493 150.479H96.6043C97.0145 150.476 97.4069 150.311 97.6958 150.02C97.9847 149.729 98.1469 149.336 98.1469 148.926V142.7C98.1469 141.673 97.7386 140.689 97.0119 139.963C96.2852 139.237 95.2995 138.829 94.2718 138.829Z" fill="#E8E8E8"/>
<path d="M144.043 138.829H142.488C143.516 138.829 144.501 139.237 145.228 139.963C145.955 140.689 146.363 141.674 146.363 142.7V149.051C146.333 149.439 146.157 149.802 145.871 150.066C145.586 150.331 145.211 150.478 144.821 150.479H146.376C146.786 150.476 147.178 150.311 147.467 150.02C147.756 149.729 147.918 149.336 147.918 148.926V142.7C147.918 141.674 147.51 140.689 146.783 139.963C146.056 139.237 145.071 138.829 144.043 138.829Z" fill="#E8E8E8"/>
<path d="M99.7132 148.926V142.7C99.7132 141.673 100.121 140.689 100.848 139.963C101.575 139.237 102.561 138.829 103.588 138.829H102.033C101.006 138.829 100.02 139.237 99.2932 139.963C98.5665 140.689 98.1582 141.673 98.1582 142.7V148.926C98.1582 149.338 98.322 149.733 98.6137 150.024C98.9053 150.316 99.3008 150.479 99.7132 150.479H101.268C100.856 150.479 100.46 150.316 100.169 150.024C99.877 149.733 99.7132 149.338 99.7132 148.926Z" fill="#E8E8E8"/>
<path d="M49.9671 148.926V142.7C49.9671 142.192 50.0672 141.688 50.2619 141.219C50.4566 140.749 50.742 140.322 51.1018 139.963C51.4616 139.603 51.8888 139.318 52.3589 139.124C52.8291 138.929 53.3329 138.829 53.8418 138.829H52.2868C51.7779 138.829 51.274 138.929 50.8039 139.124C50.3338 139.318 49.9066 139.603 49.5468 139.963C49.187 140.322 48.9016 140.749 48.7069 141.219C48.5122 141.688 48.4121 142.192 48.4121 142.7V148.926C48.4121 149.338 48.5759 149.733 48.8676 150.024C49.1592 150.316 49.5547 150.479 49.9671 150.479H51.5221C51.1097 150.479 50.7142 150.316 50.4226 150.024C50.1309 149.733 49.9671 149.338 49.9671 148.926Z" fill="#E8E8E8"/>
<defs>
<radialGradient id="paint0_radial" cx="0" cy="0" r="1" gradientUnits="userSpaceOnUse" gradientTransform="translate(155.5 116.026) scale(137.443 98.8526)">
<stop stop-color="#F0F0F0"/>
<stop offset="0.56" stop-color="#F3F3F3"/>
<stop offset="0.91" stop-color="#FBFBFB"/>
<stop offset="1" stop-color="white"/>
</radialGradient>
<radialGradient id="paint1_radial" cx="0" cy="0" r="1" gradientUnits="userSpaceOnUse" gradientTransform="translate(155.5 116.026) scale(137.443 98.8526)">
<stop stop-color="#F0F0F0"/>
<stop offset="0.56" stop-color="#F3F3F3"/>
<stop offset="0.91" stop-color="#FBFBFB"/>
<stop offset="1" stop-color="white"/>
</radialGradient>
</defs>
</svg>
