<svg width="24" height="24" viewBox="0 0 24 24" fill="none" xmlns="http://www.w3.org/2000/svg">
<path d="M23.8353 15.0491C23.7423 14.8823 23.5868 14.7592 23.4031 14.707C23.2194 14.6548 23.0224 14.6777 22.8556 14.7707L19.1327 16.8463L19.6074 15.4139C21.0253 11.2709 19.6045 6.68636 16.0922 4.07116C12.58 1.45595 7.78058 1.40901 4.21782 3.95502C0.65506 6.50102 -0.855098 11.0569 0.481456 15.2269C1.81801 19.3969 5.69516 22.226 10.0741 22.2266C10.4718 22.2266 10.7941 21.9042 10.7941 21.5066C10.7941 21.1089 10.4718 20.7866 10.0741 20.7866C6.32613 20.7828 3.00958 18.3589 1.86796 14.789C0.726337 11.2191 2.021 7.32049 5.07137 5.14268C8.12173 2.96487 12.2294 3.00642 15.2351 5.24548C18.2408 7.48454 19.4564 11.4085 18.2428 14.9546L17.7825 16.3437L16.3281 12.1773C16.1915 11.8098 15.7861 11.6191 15.416 11.7483C15.0458 11.8774 14.847 12.2789 14.9687 12.6515L17.0721 18.6779C17.1421 18.8786 17.2973 19.0381 17.4959 19.1136C17.6946 19.1891 17.9165 19.173 18.1021 19.0696L23.5569 16.0283C23.9041 15.8348 24.0287 15.3964 23.8353 15.0491Z" fill="#2E2842"/>
<mask id="mask0" mask-type="alpha" maskUnits="userSpaceOnUse" x="0" y="2" width="24" height="21">
<path d="M23.8353 15.0491C23.7423 14.8823 23.5868 14.7592 23.4031 14.707C23.2194 14.6548 23.0224 14.6777 22.8556 14.7707L19.1327 16.8463L19.6074 15.4139C21.0253 11.2709 19.6045 6.68636 16.0922 4.07116C12.58 1.45595 7.78058 1.40901 4.21782 3.95502C0.65506 6.50102 -0.855098 11.0569 0.481456 15.2269C1.81801 19.3969 5.69516 22.226 10.0741 22.2266C10.4718 22.2266 10.7941 21.9042 10.7941 21.5066C10.7941 21.1089 10.4718 20.7866 10.0741 20.7866C6.32613 20.7828 3.00958 18.3589 1.86796 14.789C0.726337 11.2191 2.021 7.32049 5.07137 5.14268C8.12173 2.96487 12.2294 3.00642 15.2351 5.24548C18.2408 7.48454 19.4564 11.4085 18.2428 14.9546L17.7825 16.3437L16.3281 12.1773C16.1915 11.8098 15.7861 11.6191 15.416 11.7483C15.0458 11.8774 14.847 12.2789 14.9687 12.6515L17.0721 18.6779C17.1421 18.8786 17.2973 19.0381 17.4959 19.1136C17.6946 19.1891 17.9165 19.173 18.1021 19.0696L23.5569 16.0283C23.9041 15.8348 24.0287 15.3964 23.8353 15.0491Z" fill="white"/>
</mask>
<g mask="url(#mask0)">
<rect width="24" height="24" fill="#9FA1A7"/>
</g>
</svg>
